<?xml version="1.0" encoding="utf-8"?>
<!-- Generator: Adobe Illustrator 27.0.0, SVG Export Plug-In . SVG Version: 6.00 Build 0)  -->
<svg version="1.1" id="Layer_1" xmlns="http://www.w3.org/2000/svg" xmlns:xlink="http://www.w3.org/1999/xlink" x="0px" y="0px"
	 viewBox="0 0 1120.7 266.1" style="enable-background:new 0 0 1120.7 266.1;" xml:space="preserve">
<style type="text/css">
	.st0{fill:#0046BE;}
	.st1{fill:#313A4B;}
</style>
<path class="st0" d="M223.8,133.7c0,40-0.1,80,0.1,120c0,5-1.3,6.5-6.4,6.5c-69.3-0.2-138.5-0.1-207.8,0c-4.7,0-6.3-1.1-6.3-6.1
	c0.2-80.5,0.2-161,0.1-241.5c0-4.3,1.1-6.2,5.7-5.3c2.1,0.4,4.3,0.2,6.5,0.2C82.8,7.6,149.9,7.6,217,7.6c6.8,0,6.8,0,6.8,6.7
	C223.9,54.1,223.8,93.9,223.8,133.7z M50.8,37.6c-1.5,0-3,0-4.5,0c-15.4,0.5-13.4-1.3-11,13.5c7.3,45.3,49.1,71.6,89.1,66.4
	c37.8-5,68-37.4,69.3-75.6c0.1-3.4-1.1-4.4-4.3-4.3c-6.7,0.1-13.3,0-20,0c-7.7,0-7.7,0-8.9,7.5c-3.3,21.3-21.8,38.6-42.5,39.8
	c-23.7,1.4-43.6-12.5-49.6-34.7c-1.1-4.1-1-10-3.6-11.9c-3.1-2.1-8.6-0.7-13.1-0.8C51.5,37.6,51.2,37.6,50.8,37.6z"/>
<g>
	<path class="st1" d="M301.2,122.2c-14.2,0-24.9-3.7-32-11.2c-7.1-7.4-10.6-18.5-10.6-33c0-9.8,1.8-17.9,5.5-24.5
		c3.6-6.5,8.9-11.5,15.9-14.8c7-3.3,15.3-5,25.2-5c6,0,11.6,0.7,16.8,2c5.3,1.4,9.9,3.4,13.9,6.1c4,2.7,7.1,6.1,9.4,10.1
		c2.2,4.1,3.4,8.8,3.4,14.2h-26.2c0-1.8-0.4-3.5-1.3-5c-0.9-1.5-2-2.8-3.5-3.8c-1.5-1-3.2-1.8-5.2-2.4c-1.9-0.5-4-0.8-6.1-0.8
		c-3.2,0-6.1,0.4-8.6,1.3c-2.5,0.9-4.5,2.2-6.1,3.9c-1.6,1.7-2.8,3.8-3.7,6.2c-0.8,2.4-1.2,5.2-1.2,8.3V82c0,4.1,0.7,7.7,2.2,10.6
		c1.4,2.9,3.6,5.2,6.6,6.8c2.9,1.6,6.6,2.4,10.9,2.4c2.9,0,5.6-0.4,8-1.3c2.4-0.9,4.4-2.1,5.9-3.8c1.5-1.7,2.2-3.6,2.2-5.7v-0.5H303
		V73h45.6v47.7h-14.2l-2.7-8.4c-2.6,2.2-5.4,4-8.4,5.5c-3.1,1.5-6.4,2.6-10.1,3.4C309.6,121.8,305.5,122.2,301.2,122.2z"/>
	<path class="st1" d="M365.6,120.7V35.3h53.5c6.4,0,11.7,1.3,16,3.8c4.3,2.6,7.5,5.9,9.6,10.1c2.2,4.1,3.2,8.6,3.2,13.4
		c0,5.5-1.3,10.3-3.8,14.6c-2.6,4.3-6,7.7-10.4,10.2l16.8,33.3h-30.8l-13-28.7H393v28.7H365.6z M393,73h19.2c2.2,0,4-0.8,5.5-2.5
		c1.5-1.7,2.2-4,2.2-6.8c0-1.7-0.3-3.3-1-4.6c-0.7-1.3-1.6-2.4-2.7-3.2c-1.2-0.8-2.5-1.2-4-1.2H393V73z"/>
	<path class="st1" d="M462.5,120.7V35.3h73.9v20.5H490v11.8h39.7v19.6H490v13h47.3v20.5H462.5z"/>
	<path class="st1" d="M573.5,120.7V57.1h-28.1V35.3h83.4v21.8h-27.9v63.6H573.5z"/>
	<path class="st1" d="M623.5,120.7l31.2-85.4h31.9l31.2,85.4h-29l-3.6-12h-29.9l-3.6,12H623.5z M660.9,89.5h18.6l-4.1-13.7
		c-0.3-1-0.7-2.2-1.1-3.6c-0.4-1.4-0.8-2.9-1.2-4.5c-0.4-1.6-0.8-3.1-1.2-4.7c-0.4-1.5-0.8-2.9-1.1-4h-1c-0.3,1.5-0.8,3.2-1.3,5.1
		c-0.5,1.9-1.1,3.9-1.7,5.9c-0.6,2-1.2,4-1.7,5.8L660.9,89.5z"/>
	<path class="st1" d="M262.2,233.5v-85.4h27.4v31.2h30.2v-31.2h27.4v85.4h-27.4v-32.4h-30.2v32.4H262.2z"/>
	<path class="st1" d="M357.6,233.5l31.2-85.4h31.9l31.2,85.4h-29l-3.6-12h-29.9l-3.6,12H357.6z M395,202.3h18.6l-4.1-13.7
		c-0.3-1-0.7-2.2-1.1-3.6c-0.4-1.4-0.8-2.9-1.2-4.5c-0.4-1.6-0.8-3.1-1.2-4.7c-0.4-1.5-0.8-2.9-1.1-4h-1c-0.3,1.5-0.8,3.2-1.3,5.1
		c-0.5,1.9-1.1,3.9-1.7,5.9c-0.6,2-1.2,4-1.7,5.8L395,202.3z"/>
	<path class="st1" d="M462.2,233.5v-85.4h50.4c5.4,0,10.1,1.2,14.2,3.7c4.1,2.4,7.3,5.8,9.6,10.1c2.3,4.3,3.5,9.3,3.5,15
		c0,5.9-1.2,11-3.5,15.3c-2.4,4.3-5.6,7.7-9.7,10.1c-4.1,2.4-8.8,3.6-14.1,3.6h-23v27.6H462.2z M489.6,185.9h13.8
		c2.9,0,5.1-0.7,6.5-2.2c1.4-1.5,2.2-3.7,2.2-6.6c0-2-0.3-3.6-0.9-4.9c-0.6-1.3-1.6-2.3-2.9-2.9c-1.3-0.7-2.9-1-4.9-1h-13.8V185.9z"
		/>
	<path class="st1" d="M551.8,233.5v-85.4h50.4c5.4,0,10.1,1.2,14.2,3.7c4.1,2.4,7.3,5.8,9.6,10.1c2.3,4.3,3.5,9.3,3.5,15
		c0,5.9-1.2,11-3.5,15.3c-2.4,4.3-5.6,7.7-9.7,10.1c-4.1,2.4-8.8,3.6-14.1,3.6h-23v27.6H551.8z M579.2,185.9H593
		c2.9,0,5.1-0.7,6.5-2.2c1.4-1.5,2.2-3.7,2.2-6.6c0-2-0.3-3.6-0.9-4.9c-0.6-1.3-1.6-2.3-2.9-2.9c-1.3-0.7-2.9-1-4.9-1h-13.8V185.9z"
		/>
	<path class="st1" d="M660.8,233.5v-33.1l-33.9-52.3h31.5l16.4,28.4h0.5l16.4-28.4h29.9l-33.4,52.3v33.1H660.8z"/>
	<path class="st1" d="M731.8,233.5v-85.4h37c9.8,0,18,1.5,24.6,4.6c6.6,3.1,11.6,7.7,15.1,14c3.4,6.3,5.2,14.3,5.2,24.1
		c0,9.7-1.7,17.7-5.2,24c-3.4,6.3-8.5,11-15.1,14.1c-6.6,3.1-14.8,4.6-24.6,4.6H731.8z M759.2,213h9.1c3,0,5.6-0.4,7.8-1.2
		c2.2-0.8,4-2,5.4-3.6c1.4-1.6,2.4-3.5,3.1-5.8c0.7-2.3,1-4.9,1-7.8v-7.4c0-2.9-0.3-5.5-1-7.8c-0.7-2.3-1.7-4.3-3.1-5.8
		c-1.4-1.6-3.2-2.8-5.4-3.6c-2.2-0.8-4.8-1.2-7.8-1.2h-9.1V213z"/>
	<path class="st1" d="M828.7,233.5v-85.4h73.9v20.5h-46.4v11.8h39.7V200h-39.7v13h47.3v20.5H828.7z"/>
	<path class="st1" d="M918.3,233.5v-85.4h73.9v20.5h-46.4v11.8h39.7V200h-39.7v13H993v20.5H918.3z"/>
	<path class="st1" d="M1007.6,233.5v-85.4h27.4v63.6h43.8v21.8H1007.6z"/>
	<path class="st0" d="M1088.7,233.5v-24.7h26.3v24.7H1088.7z"/>
</g>
</svg>
